# xmcd
#
# Track frame offsets:
#	150
#	20064
#	37231
#	56327
#	74044
#	92530
#	109413
#	131373
#	146086
#	165928
#	184489
#	202340
#
# Disc length: 2947 seconds
# Revision: 5
# Processed by: cddbd v1.5.2PL0 Copyright (c) Steve Scherf et al.
# Submitted via: dBpowerAMP V12.0
#
DISCID=ba0b810c
DTITLE=Randy Rogers Band - Just a Matter of Time
DYEAR=2006
DGENRE=Country
TTITLE0=Better off Wrong
TTITLE1=Kiss Me in the Dark
TTITLE2=One More Goodbye
TTITLE3=Just a Matter of Time
TTITLE4=You Could've Left Me
TTITLE5=You Could Change My Mind
TTITLE6=Before I Believe It's True
TTITLE7=You Start Over Your Way
TTITLE8=If Anyone Asks
TTITLE9=You Don't Know Me
TTITLE10=If I Told You the Truth
TTITLE11=Whiskey's Got a Hold on Me
EXTD=
EXTT0=
EXTT1=
EXTT2=
EXTT3=
EXTT4=
EXTT5=
EXTT6=
EXTT7=
EXTT8=
EXTT9=
EXTT10=
EXTT11=
PLAYORDER=
